# xmcd
#
# Track frame offsets:
#	182
#	12720
#	26135
#	38762
#	52497
#	61890
#	76480
#	90900
#	105000
#	115932
#	126820
#	137122
#	150190
#	162010
#	175987
#	189547
#	203647
#	216645
#
# Disc length: 3219 seconds
#
# Revision: 0
# Processed by: cddbd v1.5.2PL0 Copyright (c) Steve Scherf et al.
# Submitted via: EasyCDDAExtractor 10.0.2.1
#
DISCID=f10c9112
DTITLE=Lightning Slim - Rollin' Stone
DYEAR=1991
DGENRE=Blues
TTITLE0=Rock Me Mama
TTITLE1=Bad Luck
TTITLE2=New Orleans Bound
TTITLE3=I Can't Live Happy
TTITLE4=Bugger Bugger Boy
TTITLE5=Ethel Mae
TTITLE6=Mean Old Lonesome Train
TTITLE7=I'm Grown
TTITLE8=I'm A Rollin' Stone
TTITLE9=Hoodoo Man
TTITLE10=Long Leanie Mama
TTITLE11=Tom Cat Blues
TTITLE12=Rooster Blues
TTITLE13=Nothing But The Devil
TTITLE14=Wintertime Blues
TTITLE15=Trip To Chicago
TTITLE16=I Hate To Leave You
TTITLE17=Lightnin' Blues
EXTD=
EXTT0=
EXTT1=
EXTT2=
EXTT3=
EXTT4=
EXTT5=
EXTT6=
EXTT7=
EXTT8=
EXTT9=
EXTT10=
EXTT11=
EXTT12=
EXTT13=
EXTT14=
EXTT15=
EXTT16=
EXTT17=
PLAYORDER=
